<svg width="40" height="40" viewBox="0 0 40 40" fill="none" xmlns="http://www.w3.org/2000/svg">
<path fill-rule="evenodd" clip-rule="evenodd" d="M10 10C10 9.44772 10.4477 9 11 9H29C29.5523 9 30 9.44772 30 10C30 10.5523 29.5523 11 29 11H11C10.4477 11 10 10.5523 10 10ZM10 15C10 14.4477 10.4477 14 11 14H29C29.5523 14 30 14.4477 30 15C30 15.5523 29.5523 16 29 16H11C10.4477 16 10 15.5523 10 15ZM11 19C10.4477 19 10 19.4477 10 20C10 20.5523 10.4477 21 11 21H19C19.5523 21 20 20.5523 20 20C20 19.4477 19.5523 19 19 19H11ZM27 19C27 18.4477 26.5523 18 26 18C25.4477 18 25 18.4477 25 19V22H22C21.4477 22 21 22.4477 21 23C21 23.5523 21.4477 24 22 24H25V27C25 27.5523 25.4477 28 26 28C26.5523 28 27 27.5523 27 27V24H30C30.5523 24 31 23.5523 31 23C31 22.4477 30.5523 22 30 22H27V19ZM11 24C10.4477 24 10 24.4477 10 25C10 25.5523 10.4477 26 11 26H19C19.5523 26 20 25.5523 20 25C20 24.4477 19.5523 24 19 24H11Z" fill="url(#paint0_linear_2011_28190)"/>
<defs>
<linearGradient id="paint0_linear_2011_28190" x1="10" y1="18.5" x2="31" y2="18.5" gradientUnits="userSpaceOnUse">
<stop stop-color="#A93CFF"/>
<stop offset="1" stop-color="#7A3CFF"/>
</linearGradient>
</defs>
</svg>
