<svg width="24" height="24" viewBox="0 0 24 24" fill="none" xmlns="http://www.w3.org/2000/svg">
<path d="M4.92909 20H19.0709C21.0111 20 22 19.0107 22 17.0511V6.93939C22 4.98929 21.0111 4 19.0709 4H4.92909C2.97014 4 2 4.97981 2 6.93939V17.0511C2 19.0107 2.97014 20 4.92909 20ZM8.50183 11.8954C7.30782 11.8954 6.33768 10.9061 6.33768 9.68849C6.33768 8.48038 7.30782 7.48157 8.50183 7.48157C9.68654 7.48157 10.6567 8.48038 10.6567 9.68849C10.6567 10.9061 9.68654 11.8954 8.50183 11.8954ZM4.81713 18.4685C3.97758 18.4685 3.50187 17.9833 3.50187 17.1177V16.3377L5.12499 14.8252C5.95521 14.0642 6.43096 13.541 7.08395 13.541C7.75556 13.541 8.29663 14.0832 9.14552 14.8347L10.0224 15.6338L13.0821 12.8276C14.0988 11.8858 14.7799 11.2485 15.5914 11.2485C16.4123 11.2485 17.112 11.8668 18.11 12.8276L20.498 15.1391V17.1177C20.498 17.9833 20.0129 18.4685 19.1735 18.4685H4.81713Z" fill="url(#paint0_linear_2011_28242)"/>
<defs>
<linearGradient id="paint0_linear_2011_28242" x1="2" y1="12" x2="22" y2="12" gradientUnits="userSpaceOnUse">
<stop stop-color="#A93CFF"/>
<stop offset="1" stop-color="#7A3CFF"/>
</linearGradient>
</defs>
</svg>
