<svg width="40" height="41" viewBox="0 0 40 41" fill="none" xmlns="http://www.w3.org/2000/svg">
<path fill-rule="evenodd" clip-rule="evenodd" d="M17.4978 11.3342L15.8312 13.0009L17.4978 14.6675L19.1643 13.001L20.8309 14.6675L22.4974 13.001L24.064 14.5676L23.964 14.6676L25.6307 16.3343L27.2973 14.6676L27.297 14.6672L28.9633 13.0009L27.2967 11.3342L25.7303 12.9006L24.1639 11.3342L22.4974 13.0007L20.8309 11.3342L19.1643 13.0007L17.4978 11.3342ZM20.6297 18.0009L18.963 19.6676L18.9633 19.6678L17.297 21.3341L18.9637 23.0008L20.6303 21.3341L20.6301 21.3339L22.2963 19.6676L20.6297 18.0009ZM20.63 18.0009L22.2967 16.3342L23.9633 18.0009L22.2967 19.6675L20.63 18.0009ZM25.8322 16.3344L27.4988 14.6677L29.1655 16.3344L27.4989 18.001L29.1655 19.6676L27.4989 21.3342L29.1655 23.0009L27.4988 24.6675L25.8322 23.0009L27.4988 21.3342L25.8322 19.6676L27.4988 18.001L25.8322 16.3344ZM23.9637 14.6677L22.297 16.3344L23.9637 18.001L25.6303 16.3344L23.9637 14.6677ZM17.2967 21.3342L15.63 23.0009L15.6304 23.0012L13.964 24.6676L15.6307 26.3343L17.2973 24.6676L17.297 24.6672L18.9633 23.0009L17.2967 21.3342ZM13.9637 24.6674L12.297 26.3341L13.9637 28.0008L15.6303 26.3341L13.9637 24.6674ZM10.63 28.0011L12.2967 26.3344L13.9633 28.0011L12.2967 29.6678L10.63 28.0011Z" fill="#A93CFF"/>
</svg>
