<svg width="16" height="16" viewBox="0 0 16 16" fill="none" xmlns="http://www.w3.org/2000/svg">
<path fill-rule="evenodd" clip-rule="evenodd" d="M10.6745 1.32875C10.6745 0.054284 12.3239 -0.48654 13.1013 0.533043L15.5972 3.80644C16.1364 4.51373 16.1364 5.48627 15.5972 6.19356L13.1013 9.46693C12.3239 10.4865 10.6745 9.94573 10.6745 8.67127V7.03093C7.86796 6.9352 6.08187 8.4018 5.16254 9.4526C4.83862 9.82287 4.35325 9.8794 3.99001 9.7474C3.60978 9.6092 3.24799 9.209 3.35355 8.65747C3.56468 7.55427 4.06852 5.94087 5.2935 4.65036C6.43939 3.44315 8.15969 2.57871 10.6745 2.60848V1.32875ZM10.6745 5.70379C7.92063 5.70379 6.1931 6.6894 4.98963 7.73967C5.24819 7.00133 5.65179 6.21612 6.27894 5.55543C6.27894 5.55543 7.64116 3.93467 10.6745 3.93467H11.3486C11.721 3.93467 12.0228 3.6378 12.0228 3.27159V1.32875L14.5186 4.60215C14.6984 4.83791 14.6984 5.16209 14.5186 5.39785L12.0228 8.67127L12.0229 6.36691C12.0229 6.00069 11.7211 5.70379 11.3488 5.70379H10.6745ZM2.66797 0.669312H4.66797C5.03616 0.669312 5.33464 0.967785 5.33464 1.33598C5.33464 1.70416 5.03616 2.00265 4.66797 2.00265H2.66797C2.29978 2.00265 2.0013 2.30112 2.0013 2.66931V13.336C2.0013 13.7042 2.29978 14.0026 2.66797 14.0026H13.3346C13.7028 14.0026 14.0013 13.7042 14.0013 13.336V11.336C14.0013 10.9678 14.2998 10.6693 14.668 10.6693C15.0362 10.6693 15.3346 10.9678 15.3346 11.336V13.336C15.3346 14.4406 14.4392 15.336 13.3346 15.336H2.66797C1.5634 15.336 0.667969 14.4406 0.667969 13.336V2.66931C0.667969 1.56474 1.5634 0.669312 2.66797 0.669312Z" fill="white" fill-opacity="0.4"/>
<path fill-rule="evenodd" clip-rule="evenodd" d="M6.27581 5.55584C5.75657 6.10285 5.39058 6.73521 5.13326 7.35566C5.07978 7.4846 5.031 7.61304 4.98651 7.74008C5.08683 7.65253 5.1908 7.56542 5.2987 7.4793C6.48513 6.53234 8.14707 5.7042 10.6714 5.7042H11.3456C11.718 5.7042 12.0198 6.0011 12.0198 6.36733L12.0196 8.67168L14.5154 5.39827C14.6952 5.1625 14.6952 4.83833 14.5154 4.60256L12.0196 1.32917V3.272C12.0196 3.63821 11.7178 3.93509 11.3455 3.93509H10.6714C7.63804 3.93509 6.27581 5.55584 6.27581 5.55584ZM12.2196 1.92134V3.272C12.2196 3.75177 11.8252 4.13509 11.3455 4.13509H10.6714C9.19209 4.13509 8.12672 4.52987 7.43421 4.91974C7.08741 5.11498 6.83328 5.30948 6.66713 5.45366C6.58407 5.52573 6.52306 5.58518 6.48353 5.62576C6.46376 5.64605 6.44938 5.66161 6.4403 5.67167L6.43065 5.68252L6.42891 5.68452L6.42113 5.69378C6.01416 6.12253 5.70339 6.60733 5.46703 7.09889C6.66097 6.22532 8.2954 5.5042 10.6714 5.5042H11.3456C11.8253 5.5042 12.2198 5.88756 12.2198 6.36734L12.2197 8.07946L14.3564 5.277C14.4816 5.11286 14.4816 4.88798 14.3564 4.72384L12.2196 1.92134ZM2.66484 0.469725H4.66484C5.14349 0.469725 5.53151 0.85774 5.53151 1.33639C5.53151 1.81504 5.14349 2.20306 4.66484 2.20306H2.66484C2.40711 2.20306 2.19818 2.41199 2.19818 2.66972V13.3364C2.19818 13.5941 2.40711 13.8031 2.66484 13.8031H13.3315C13.5893 13.8031 13.7982 13.5941 13.7982 13.3364V11.3364C13.7982 10.8577 14.1862 10.4697 14.6648 10.4697C15.1435 10.4697 15.5315 10.8577 15.5315 11.3364V13.3364C15.5315 14.5514 14.5466 15.5364 13.3315 15.5364H2.66484C1.44982 15.5364 0.464844 14.5514 0.464844 13.3364V2.66972C0.464844 1.45469 1.44982 0.469725 2.66484 0.469725ZM4.66484 0.669725H2.66484C1.56028 0.669725 0.664844 1.56515 0.664844 2.66972V13.3364C0.664844 14.441 1.56028 15.3364 2.66484 15.3364H13.3315C14.4361 15.3364 15.3315 14.441 15.3315 13.3364V11.3364C15.3315 10.9682 15.033 10.6697 14.6648 10.6697C14.2966 10.6697 13.9982 10.9682 13.9982 11.3364V13.3364C13.9982 13.7046 13.6997 14.0031 13.3315 14.0031H2.66484C2.29666 14.0031 1.99818 13.7046 1.99818 13.3364V2.66972C1.99818 2.30153 2.29666 2.00306 2.66484 2.00306H4.66484C5.03303 2.00306 5.33151 1.70458 5.33151 1.33639C5.33151 0.968199 5.03303 0.669725 4.66484 0.669725Z" fill="white" fill-opacity="0.4"/>
</svg>
