<svg width="40" height="40" viewBox="0 0 40 40" fill="none" xmlns="http://www.w3.org/2000/svg">
<path d="M19.9984 16.6004C25.3004 16.6004 29.5984 14.9886 29.5984 13.0004C29.5984 11.0122 25.3004 9.40039 19.9984 9.40039C14.6965 9.40039 10.3984 11.0122 10.3984 13.0004C10.3984 14.9886 14.6965 16.6004 19.9984 16.6004ZM28.3141 17.2004C26.6542 18.2764 23.5518 19.0004 19.9984 19.0004C16.4451 19.0004 13.3426 18.2764 11.6827 17.2004C10.8659 17.7299 10.3984 18.3447 10.3984 19.0004C10.3984 20.9887 14.6965 22.6004 19.9984 22.6004C25.3004 22.6004 29.5984 20.9887 29.5984 19.0004C29.5984 18.3447 29.1309 17.7299 28.3141 17.2004ZM28.3141 23.2004C26.6542 24.2764 23.5518 25.0004 19.9984 25.0004C16.4451 25.0004 13.3426 24.2764 11.6827 23.2004C10.8659 23.73 10.3984 24.3447 10.3984 25.0004C10.3984 26.9887 14.6965 28.6004 19.9984 28.6004C25.3004 28.6004 29.5984 26.9887 29.5984 25.0004C29.5984 24.3447 29.1309 23.73 28.3141 23.2004Z" fill="url(#paint0_linear_2011_28049)"/>
<defs>
<linearGradient id="paint0_linear_2011_28049" x1="10.3984" y1="19.0004" x2="29.5984" y2="19.0004" gradientUnits="userSpaceOnUse">
<stop stop-color="#A93CFF"/>
<stop offset="1" stop-color="#7A3CFF"/>
</linearGradient>
</defs>
</svg>
