<svg width="149" height="56" viewBox="0 0 149 56" fill="none" xmlns="http://www.w3.org/2000/svg">
<path fill-rule="evenodd" clip-rule="evenodd" d="M27.9988 2.09346C28.5715 2.09346 29.0358 1.62482 29.0358 1.04673C29.0358 0.468636 28.5715 0 27.9988 0C27.426 0 26.9617 0.468636 26.9617 1.04673C26.9617 1.62482 27.426 2.09346 27.9988 2.09346ZM28.0007 9.9439C29.1462 9.9439 30.0748 8.77231 30.0748 7.32708C30.0748 5.88185 29.1462 4.71026 28.0007 4.71026C26.8552 4.71026 25.9266 5.88185 25.9266 7.32708C25.9266 8.77231 26.8552 9.9439 28.0007 9.9439ZM17.5703 10.2222C18.6084 10.7108 19.9406 10.0451 20.5457 8.73528C21.1508 7.42545 20.7997 5.9675 19.7616 5.47887C18.7234 4.99023 17.3913 5.65594 16.7862 6.96577C16.1811 8.2756 16.5321 9.73355 17.5703 10.2222ZM10.9229 10.7663C10.0026 11.8734 8.54516 12.1684 7.66768 11.4252C6.7902 10.682 6.82496 9.18207 7.74532 8.07494C8.66568 6.96782 10.1231 6.67279 11.0006 7.41599C11.8781 8.15918 11.8433 9.65916 10.9229 10.7663ZM6.11035 20.8458C6.98783 21.589 8.44526 21.294 9.36562 20.1868C10.286 19.0797 10.3207 17.5797 9.44326 16.8365C8.56579 16.0934 7.10835 16.3884 6.188 17.4955C5.26764 18.6026 5.23287 20.1026 6.11035 20.8458ZM9.36691 36.3365C10.2873 37.4437 10.322 38.9437 9.44455 39.6868C8.56707 40.43 7.10964 40.135 6.18928 39.0279C5.26892 37.9208 5.23416 36.4208 6.11164 35.6776C6.98911 34.9344 8.44655 35.2294 9.36691 36.3365ZM38.4271 10.2221C39.4653 9.73347 39.8163 8.27553 39.2112 6.96569C38.6061 5.65586 37.274 4.99015 36.2358 5.47879C35.1977 5.96743 34.8466 7.42537 35.4517 8.7352C36.0568 10.045 37.389 10.7107 38.4271 10.2221ZM48.2533 8.07488C49.1737 9.182 49.2085 10.682 48.331 11.4252C47.4535 12.1684 45.9961 11.8733 45.0757 10.7662C44.1553 9.6591 44.1206 8.15912 44.9981 7.41592C45.8755 6.67273 47.333 6.96775 48.2533 8.07488ZM49.8866 20.8458C50.764 20.1026 50.7293 18.6026 49.8089 17.4955C48.8886 16.3883 47.4311 16.0933 46.5536 16.8365C45.6762 17.5797 45.7109 19.0797 46.6313 20.1868C47.5516 21.2939 49.0091 21.589 49.8866 20.8458ZM49.8105 39.0279C48.8902 40.1351 47.4328 40.4301 46.5553 39.6869C45.6778 38.9437 45.7126 37.4437 46.6329 36.3366C47.5533 35.2295 49.0107 34.9344 49.8882 35.6776C50.7657 36.4208 50.7309 37.9208 49.8105 39.0279ZM21.4745 2.31029C20.867 2.92346 20.0463 3.08915 19.6413 2.68037C19.2363 2.27159 19.4005 1.44314 20.0079 0.829971C20.6154 0.216803 21.4362 0.0511122 21.8412 0.459891C22.2461 0.868671 22.082 1.69712 21.4745 2.31029ZM12.4282 4.3178C12.6429 4.69328 13.4202 4.64619 14.1642 4.21261C14.9082 3.77903 15.3372 3.12316 15.1224 2.74767C14.9077 2.37219 14.1304 2.41928 13.3864 2.85286C12.6424 3.28644 12.2134 3.94231 12.4282 4.3178ZM35.9913 0.829899C36.5988 1.44307 36.7629 2.27152 36.358 2.6803C35.953 3.08908 35.1322 2.92339 34.5247 2.31022C33.9173 1.69705 33.7531 0.868599 34.1581 0.459819C34.5631 0.0510401 35.3838 0.216731 35.9913 0.829899ZM43.64 4.57951C43.8548 4.20402 43.4258 3.54815 42.6818 3.11457C41.9378 2.68099 41.1605 2.63389 40.9458 3.00938C40.731 3.38486 41.16 4.04074 41.904 4.47432C42.648 4.9079 43.4253 4.95499 43.64 4.57951ZM25.9236 48.4706C25.9236 47.0254 26.8521 45.8538 27.9976 45.8538C29.1431 45.8538 30.0717 47.0254 30.0717 48.4706C30.0717 49.9158 29.1431 51.0874 27.9976 51.0874C26.8521 51.0874 25.9236 49.9158 25.9236 48.4706ZM38.4275 45.5756C37.3893 45.087 36.0572 45.7527 35.4521 47.0625C34.847 48.3723 35.198 49.8303 36.2362 50.3189C37.2743 50.8075 38.6064 50.1418 39.2116 48.832C39.8167 47.5222 39.4656 46.0642 38.4275 45.5756ZM45.0754 45.0315C45.9957 43.9244 47.4532 43.6294 48.3307 44.3726C49.2081 45.1158 49.1734 46.6157 48.253 47.7229C47.3327 48.83 45.8752 49.125 44.9977 48.3818C44.1203 47.6386 44.155 46.1386 45.0754 45.0315ZM17.57 45.5757C16.5319 46.0643 16.1808 47.5223 16.786 48.8321C17.3911 50.1419 18.7232 50.8076 19.7613 50.319C20.7995 49.8304 21.1505 48.3724 20.5454 47.0626C19.9403 45.7528 18.6082 45.087 17.57 45.5757ZM7.74497 47.7229C6.82461 46.6158 6.78985 45.1158 7.66733 44.3726C8.5448 43.6294 10.0022 43.9244 10.9226 45.0316C11.843 46.1387 11.8777 47.6387 11.0002 48.3819C10.1228 49.1251 8.66533 48.83 7.74497 47.7229ZM27.9996 53.9065C27.4268 53.9065 26.9625 54.3752 26.9625 54.9533C26.9625 55.5314 27.4268 56 27.9996 56C28.5723 56 29.0366 55.5314 29.0366 54.9533C29.0366 54.3752 28.5723 53.9065 27.9996 53.9065ZM34.5238 53.4875C35.1313 52.8743 35.952 52.7086 36.357 53.1174C36.762 53.5262 36.5979 54.3547 35.9904 54.9678C35.3829 55.581 34.5621 55.7467 34.1572 55.3379C33.7522 54.9291 33.9163 54.1007 34.5238 53.4875ZM43.5702 51.1332C43.3554 50.7577 42.5781 50.8048 41.8341 51.2384C41.0901 51.672 40.6611 52.3279 40.8759 52.7033C41.0906 53.0788 41.8679 53.0317 42.6119 52.5981C43.3559 52.1646 43.7849 51.5087 43.5702 51.1332ZM20.007 54.9678C19.3995 54.3547 19.2354 53.5262 19.6404 53.1174C20.0454 52.7086 20.8661 52.8743 21.4736 53.4875C22.0811 54.1007 22.2452 54.9291 21.8402 55.3379C21.4352 55.7467 20.6145 55.581 20.007 54.9678ZM12.3571 51.0274C12.1423 51.4029 12.5714 52.0588 13.3154 52.4924C14.0594 52.9259 14.8366 52.973 15.0514 52.5975C15.2662 52.2221 14.8371 51.5662 14.0931 51.1326C13.3491 50.699 12.5719 50.6519 12.3571 51.0274ZM20.7398 27.7383C20.7398 29.4726 19.3469 30.8785 17.6287 30.8785C15.9106 30.8785 14.5177 29.4726 14.5177 27.7383C14.5177 26.0041 15.9106 24.5981 17.6287 24.5981C19.3469 24.5981 20.7398 26.0041 20.7398 27.7383ZM7.77736 30.3551C9.20917 30.3551 10.3699 29.3007 10.3699 28C10.3699 26.6993 9.20917 25.6449 7.77736 25.6449C6.34556 25.6449 5.18485 26.6993 5.18485 28C5.18485 29.3007 6.34556 30.3551 7.77736 30.3551ZM2.07407 28C2.07407 28.7226 1.60978 29.3084 1.03704 29.3084C0.464297 29.3084 0 28.7226 0 28C0 27.2774 0.464297 26.6916 1.03704 26.6916C1.60978 26.6916 2.07407 27.2774 2.07407 28ZM0.553563 35.3363C0.77591 36.1739 1.40463 36.7316 1.95786 36.582C2.51108 36.4324 2.77931 35.6321 2.55696 34.7945C2.33461 33.9569 1.70589 33.3992 1.15267 33.5488C0.599442 33.6985 0.331215 34.4987 0.553563 35.3363ZM5.2467 42.9795C4.84172 43.3883 4.02096 43.2226 3.41349 42.6094C2.80602 41.9963 2.64187 41.1678 3.04685 40.759C3.45183 40.3503 4.27259 40.5159 4.88006 41.1291C5.48753 41.7423 5.65169 42.5707 5.2467 42.9795ZM2.55859 21.2055C2.78094 20.3679 2.51272 19.5676 1.95949 19.418C1.40627 19.2684 0.777539 19.8261 0.555185 20.6637C0.332831 21.5013 0.601055 22.3016 1.15428 22.4512C1.7075 22.6008 2.33623 22.0431 2.55859 21.2055ZM5.24707 13.0206C5.65205 13.4294 5.4879 14.2578 4.88043 14.871C4.27296 15.4841 3.4522 15.6498 3.04722 15.2411C2.64224 14.8323 2.80639 14.0038 3.41386 13.3907C4.02133 12.7775 4.84209 12.6118 5.24707 13.0206ZM38.3687 30.8785C40.0869 30.8785 41.4798 29.4726 41.4798 27.7383C41.4798 26.0041 40.0869 24.5981 38.3687 24.5981C36.6506 24.5981 35.2577 26.0041 35.2577 27.7383C35.2577 29.4726 36.6506 30.8785 38.3687 30.8785ZM50.8119 28C50.8119 29.3007 49.6512 30.3551 48.2194 30.3551C46.7876 30.3551 45.6269 29.3007 45.6269 28C45.6269 26.6993 46.7876 25.6449 48.2194 25.6449C49.6512 25.6449 50.8119 26.6993 50.8119 28ZM54.9628 29.3084C55.5355 29.3084 55.9998 28.7226 55.9998 28C55.9998 27.2774 55.5355 26.6916 54.9628 26.6916C54.3901 26.6916 53.9258 27.2774 53.9258 28C53.9258 28.7226 54.3901 29.3084 54.9628 29.3084ZM54.8467 33.5488C55.3999 33.6984 55.6681 34.4987 55.4458 35.3363C55.2234 36.1739 54.5947 36.7316 54.0415 36.582C53.4883 36.4324 53.22 35.6321 53.4424 34.7945C53.6647 33.9569 54.2934 33.3992 54.8467 33.5488ZM52.5827 42.6094C53.1902 41.9962 53.3544 41.1677 52.9494 40.759C52.5444 40.3502 51.7236 40.5159 51.1162 41.129C50.5087 41.7422 50.3445 42.5707 50.7495 42.9794C51.1545 43.3882 51.9753 43.2225 52.5827 42.6094ZM54.845 22.4512C54.2918 22.6008 53.6631 22.0431 53.4407 21.2055C53.2184 20.368 53.4866 19.5676 54.0398 19.418C54.5931 19.2684 55.2218 19.8261 55.4441 20.6637C55.6665 21.5013 55.3983 22.3016 54.845 22.4512ZM51.1187 14.8711C51.7262 15.4842 52.547 15.6499 52.9519 15.2411C53.3569 14.8324 53.1928 14.0039 52.5853 13.3907C51.9778 12.7776 51.1571 12.6119 50.7521 13.0207C50.3471 13.4294 50.5112 14.2579 51.1187 14.8711ZM20.6429 37.4606C21.0876 39.1358 20.2149 40.8274 18.6935 41.2388C17.1722 41.6503 15.5785 40.6258 15.1338 38.9506C14.6891 37.2755 15.5618 35.5839 17.0832 35.1724C18.6045 34.761 20.1983 35.7854 20.6429 37.4606ZM37.303 41.2388C38.8243 41.6503 40.4181 40.6258 40.8628 38.9506C41.3075 37.2755 40.4347 35.5839 38.9134 35.1724C37.3921 34.761 35.7983 35.7854 35.3536 37.4606C34.9089 39.1358 35.7817 40.8274 37.303 41.2388Z" fill="url(#paint0_radial_2011_27683)"/>
<path fill-rule="evenodd" clip-rule="evenodd" d="M18.3176 21.1285C18.8734 21.1285 19.3964 20.9869 19.853 20.7376C20.8234 20.2076 21.7954 19.5019 22.9011 19.5019H23.352C24.1788 19.5019 24.9691 19.958 25.5607 20.5354C26.0548 21.0177 26.4509 21.6087 26.561 22.2902L26.5748 22.3755C26.6643 22.9288 26.667 23.4926 26.5829 24.0467L26.5758 24.0934C26.4564 24.88 25.9337 25.5331 25.4486 26.1637C25.0252 26.714 24.7731 27.405 24.7731 28.1554C24.7731 28.5259 24.8346 28.8819 24.9478 29.2137C25.4121 30.5746 26.387 31.8576 26.387 33.2954C26.387 34.7332 25.4121 36.0163 24.9478 37.3771C24.8346 37.7089 24.7731 38.0649 24.7731 38.4355C24.7731 40.2322 26.2183 41.6887 28.0009 41.6887C29.7836 41.6887 31.2287 40.2322 31.2287 38.4355C31.2287 38.0649 31.1672 37.7089 31.054 37.3771C30.5898 36.0163 29.6148 34.7332 29.6148 33.2954C29.6148 31.8576 30.5898 30.5746 31.054 29.2137C31.1672 28.8819 31.2287 28.5259 31.2287 28.1554C31.2287 27.405 30.9767 26.714 30.5533 26.1637C30.0682 25.5331 29.5454 24.88 29.426 24.0934L29.4189 24.0467C29.3348 23.4926 29.3376 22.9288 29.427 22.3755L29.4408 22.2902C29.551 21.6087 29.9471 21.0177 30.4411 20.5354C31.0327 19.958 31.8231 19.5019 32.6498 19.5019H33.1008C34.2065 19.5019 35.1784 20.2076 36.1489 20.7376C36.6055 20.9869 37.1284 21.1285 37.6842 21.1285C39.4669 21.1285 40.912 19.672 40.912 17.8753C40.912 16.0786 39.4669 14.6221 37.6842 14.6221C37.1284 14.6221 36.6054 14.7637 36.1488 15.013C35.1784 15.5429 34.2065 16.2487 33.1008 16.2487C31.9951 16.2487 30.9637 15.5932 29.9708 15.1067C29.3438 14.7994 28.6229 14.6221 28.0009 14.6221C27.3789 14.6221 26.658 14.7994 26.031 15.1067C25.0381 15.5932 24.0067 16.2487 22.901 16.2487C21.7954 16.2487 20.8234 15.5429 19.853 15.013C19.3964 14.7637 18.8734 14.6221 18.3176 14.6221C16.535 14.6221 15.0898 16.0786 15.0898 17.8753C15.0898 19.672 16.535 21.1285 18.3176 21.1285Z" fill="url(#paint1_linear_2011_27683)"/>
<path fill-rule="evenodd" clip-rule="evenodd" d="M83.8475 35.9018C84.5467 36.3375 85.3106 36.5554 86.139 36.5554C86.9826 36.5554 87.7502 36.3453 88.4418 35.9251C89.1335 35.5049 89.6883 34.933 90.1063 34.2093C90.5167 33.4857 90.7219 32.6686 90.7219 31.7582C90.7219 30.8167 90.4939 30.023 90.0379 29.3772C89.5895 28.7313 88.9777 28.1866 88.2024 27.7431C88.1568 27.7197 88.0238 27.6497 87.8034 27.533C87.583 27.4085 87.336 27.2723 87.0624 27.1245C86.7964 26.9688 86.5532 26.8288 86.3328 26.7043C86.1124 26.5798 85.9718 26.502 85.911 26.4708C85.3334 26.1518 84.9344 25.8172 84.714 25.4671C84.5011 25.1169 84.3947 24.6811 84.3947 24.1598C84.3947 23.6462 84.5658 23.2027 84.9078 22.8292C85.2498 22.4557 85.6602 22.2689 86.139 22.2689C86.6102 22.2689 87.0168 22.444 87.3588 22.7942C87.7008 23.1443 87.8718 23.5995 87.8718 24.1598L87.8946 26.1207C87.8946 26.1829 87.925 26.2141 87.9858 26.2141H90.6079C90.6687 26.2141 90.6991 26.1829 90.6991 26.1207V24.1598C90.6991 23.2805 90.4901 22.4868 90.0721 21.7787C89.6617 21.0706 89.1107 20.5026 88.419 20.0746C87.7274 19.6544 86.9674 19.4443 86.139 19.4443C85.3334 19.4443 84.5848 19.6544 83.8931 20.0746C83.2091 20.487 82.6543 21.0473 82.2287 21.7554C81.8031 22.4713 81.5903 23.2727 81.5903 24.1598C81.5903 25.1247 81.7955 25.9962 82.2059 26.7743C82.6239 27.5447 83.2585 28.1866 84.1097 28.7002C84.3453 28.8325 84.5886 28.9725 84.8394 29.1204C85.0902 29.2604 85.3486 29.4044 85.6146 29.5522C85.8806 29.7001 86.1086 29.8324 86.2986 29.9491C86.4962 30.058 86.6558 30.1514 86.7774 30.2292C87.5222 30.665 87.8946 31.1746 87.8946 31.7582C87.8946 32.264 87.7236 32.7114 87.3816 33.1005C87.0396 33.4818 86.6254 33.6724 86.139 33.6724C85.6602 33.6724 85.2498 33.4857 84.9078 33.1122C84.5658 32.7309 84.3947 32.2796 84.3947 31.7582V30.6611C84.3947 30.5755 84.3643 30.5327 84.3035 30.5327H81.6815C81.6055 30.5327 81.5675 30.5755 81.5675 30.6611V31.7582C81.5675 32.6297 81.7727 33.4312 82.1831 34.1627C82.6011 34.8863 83.1559 35.466 83.8475 35.9018ZM70.9994 36.322H73.6443C73.7051 36.322 73.7355 36.283 73.7355 36.2052L73.7583 29.1787H75.2973C75.875 29.1787 76.3614 29.3888 76.7566 29.809C77.1518 30.2292 77.3494 30.7272 77.3494 31.303V36.2519C77.3494 36.2986 77.3798 36.322 77.4406 36.322H80.0855C80.1615 36.322 80.1995 36.283 80.1995 36.2052L80.1767 31.303C80.1767 30.0113 79.7549 28.8869 78.9112 27.9298C79.1012 27.7742 79.3102 27.533 79.5382 27.2062C79.7739 26.8794 79.9791 26.4786 80.1539 26.004C80.3287 25.5293 80.4161 25.0002 80.4161 24.4166C80.4161 23.5217 80.2033 22.7203 79.7777 22.0122C79.3596 21.3041 78.7972 20.7399 78.0904 20.3197C77.3836 19.8995 76.6084 19.6894 75.7648 19.6894H71.045C70.9842 19.6894 70.9538 19.7206 70.9538 19.7828L70.9082 36.2052C70.9082 36.283 70.9386 36.322 70.9994 36.322ZM73.7583 22.5491H75.7648C76.2664 22.5491 76.6996 22.7358 77.0644 23.1093C77.4292 23.475 77.6116 23.9108 77.6116 24.4166C77.6116 24.9457 77.4216 25.3931 77.0416 25.7588C76.6692 26.1246 76.2436 26.3074 75.7648 26.3074H73.7583V22.5491ZM60.1584 36.2052L63.0541 19.7828C63.0693 19.7206 63.1073 19.6894 63.1681 19.6894H66.554C66.6148 19.6894 66.6528 19.7206 66.668 19.7828L69.4497 36.2052C69.4573 36.283 69.4269 36.322 69.3585 36.322H66.7706C66.6946 36.322 66.6528 36.283 66.6452 36.2052L66.3944 34.4544H63.2137L62.9629 36.2052C62.9553 36.283 62.9173 36.322 62.8489 36.322H60.2497C60.1888 36.322 60.1584 36.283 60.1584 36.2052ZM64.73 25.1869L63.6811 31.8983H65.927L64.9694 25.1869L64.8326 24.2999L64.73 25.1869ZM55.3585 36.322H57.9919C58.0527 36.322 58.0831 36.283 58.0831 36.2052L58.0603 22.5724H61.127C61.1878 22.5724 61.2182 22.5335 61.2182 22.4557V19.7828C61.2182 19.7206 61.1764 19.6894 61.0928 19.6894H52.2234C52.1626 19.6894 52.1322 19.7206 52.1322 19.7828L52.1094 22.4557C52.1094 22.5335 52.1474 22.5724 52.2234 22.5724H55.2559V36.2052C55.2559 36.283 55.2901 36.322 55.3585 36.322Z" fill="white"/>
<path fill-rule="evenodd" clip-rule="evenodd" d="M122.63 36.2418C123.097 36.5258 123.607 36.6678 124.16 36.6678C124.723 36.6678 125.235 36.5258 125.696 36.2418C126.158 35.9578 126.528 35.5774 126.807 35.1007C127.081 34.629 127.218 34.1092 127.218 33.5411L127.203 28.6039C127.203 28.0308 127.063 27.5109 126.784 27.0443C126.51 26.5727 126.145 26.1974 125.689 25.9184C125.237 25.6395 124.728 25.5 124.16 25.5C123.612 25.5 123.105 25.642 122.638 25.926C122.171 26.205 121.801 26.5777 121.527 27.0443C121.248 27.5058 121.109 28.0257 121.109 28.6039L121.094 33.5411C121.094 34.1092 121.233 34.6315 121.512 35.1083C121.796 35.5799 122.169 35.9578 122.63 36.2418ZM124.981 34.4084C124.748 34.662 124.474 34.7888 124.16 34.7888C123.84 34.7888 123.566 34.667 123.338 34.4236C123.11 34.1751 122.996 33.8809 122.996 33.5411V28.6039C122.996 28.2488 123.11 27.9547 123.338 27.7214C123.566 27.4881 123.84 27.3714 124.16 27.3714C124.494 27.3714 124.771 27.4906 124.989 27.729C125.207 27.9674 125.316 28.259 125.316 28.6039L125.331 33.5411C125.331 33.8607 125.214 34.1497 124.981 34.4084ZM130.223 36.5157H128.458C128.417 36.5157 128.397 36.4903 128.397 36.4396L128.427 25.7358C128.427 25.6953 128.448 25.675 128.488 25.675H131.638C132.201 25.675 132.718 25.8119 133.19 26.0858C133.661 26.3597 134.037 26.7274 134.316 27.1889C134.6 27.6504 134.742 28.1728 134.742 28.756C134.742 29.1364 134.683 29.4813 134.567 29.7906C134.45 30.1 134.313 30.3612 134.156 30.5742C134.004 30.7872 133.864 30.9444 133.737 31.0459C134.3 31.6697 134.582 32.4026 134.582 33.2445L134.597 36.4396C134.597 36.4903 134.572 36.5157 134.521 36.5157H132.756C132.716 36.5157 132.695 36.5005 132.695 36.47V33.2445C132.695 32.8691 132.563 32.5446 132.3 32.2707C132.036 31.9968 131.711 31.8599 131.326 31.8599H130.299L130.284 36.4396C130.284 36.4903 130.263 36.5157 130.223 36.5157ZM131.638 27.5388H130.299V29.9884H131.638C131.957 29.9884 132.241 29.8693 132.49 29.6309C132.743 29.3925 132.87 29.1009 132.87 28.756C132.87 28.4264 132.748 28.1423 132.505 27.904C132.262 27.6605 131.973 27.5388 131.638 27.5388ZM135.974 36.5157H141.01C141.051 36.5157 141.071 36.4954 141.071 36.4548V34.6747C141.071 34.6239 141.051 34.5986 141.01 34.5986H137.8V31.8751H141.01C141.051 31.8751 141.071 31.8548 141.071 31.8142L141.056 30.0493C141.056 30.0087 141.036 29.9884 140.995 29.9884H137.8V27.554H140.995C141.036 27.554 141.056 27.5337 141.056 27.4932V25.7511C141.056 25.7003 141.036 25.675 140.995 25.675H135.989C135.949 25.675 135.928 25.6953 135.928 25.7358L135.913 36.4396C135.913 36.4903 135.933 36.5157 135.974 36.5157ZM142.517 36.5157H144.281C144.322 36.5157 144.342 36.4903 144.342 36.4396L144.358 31.8599H145.385C145.77 31.8599 146.095 31.9968 146.358 32.2707C146.622 32.5446 146.754 32.8691 146.754 33.2445V36.47C146.754 36.5005 146.774 36.5157 146.815 36.5157H148.58C148.63 36.5157 148.656 36.4903 148.656 36.4396L148.641 33.2445C148.641 32.4026 148.359 31.6697 147.796 31.0459C147.923 30.9444 148.062 30.7872 148.215 30.5742C148.372 30.3612 148.509 30.1 148.625 29.7906C148.742 29.4813 148.8 29.1364 148.8 28.756C148.8 28.1728 148.658 27.6504 148.374 27.1889C148.095 26.7274 147.72 26.3597 147.248 26.0858C146.777 25.8119 146.259 25.675 145.696 25.675H142.547C142.506 25.675 142.486 25.6953 142.486 25.7358L142.456 36.4396C142.456 36.4903 142.476 36.5157 142.517 36.5157ZM144.358 27.5388H145.696C146.031 27.5388 146.32 27.6605 146.564 27.904C146.807 28.1423 146.929 28.4264 146.929 28.756C146.929 29.1009 146.802 29.3925 146.548 29.6309C146.3 29.8693 146.016 29.9884 145.696 29.9884H144.358V27.5388ZM120.181 36.5157H115.145C115.104 36.5157 115.084 36.4903 115.084 36.4396L115.099 25.7511C115.099 25.7003 115.124 25.675 115.175 25.675H116.91C116.96 25.675 116.986 25.7003 116.986 25.7511L116.971 34.5986H120.181C120.232 34.5986 120.257 34.6239 120.257 34.6747V36.4396C120.257 36.4903 120.232 36.5157 120.181 36.5157ZM107.918 36.5157H109.667C109.718 36.5157 109.743 36.4903 109.743 36.4396V32.5141H110.93C111.478 32.5141 111.985 32.3671 112.452 32.0729C112.918 31.7787 113.299 31.3629 113.593 30.8253C113.882 30.2826 114.026 29.6461 114.026 28.9158C114.026 27.9167 113.747 27.128 113.19 26.5498C112.637 25.9666 111.884 25.675 110.93 25.675H107.933C107.892 25.675 107.872 25.6953 107.872 25.7358L107.842 36.4396C107.842 36.4903 107.867 36.5157 107.918 36.5157ZM109.743 27.5388L110.93 27.5236C111.311 27.5236 111.61 27.6555 111.828 27.9192C112.046 28.1779 112.155 28.51 112.155 28.9158C112.155 29.4229 112.033 29.8363 111.79 30.1558C111.546 30.4702 111.26 30.6275 110.93 30.6275H109.743V27.5388ZM102.813 36.5157H101.063C101.028 36.5157 101.013 36.4903 101.018 36.4396L102.798 30.8785L101.048 25.7358C101.038 25.6953 101.053 25.675 101.094 25.675H102.843C102.894 25.675 102.925 25.6953 102.935 25.7358L103.977 29.4407L105.034 25.7358C105.044 25.6953 105.077 25.675 105.133 25.675H106.86C106.901 25.675 106.916 25.6953 106.906 25.7358L105.164 30.8633L106.921 36.4396C106.941 36.4903 106.926 36.5157 106.875 36.5157H105.133C105.088 36.5157 105.055 36.4903 105.034 36.4396L103.977 32.4152L102.904 36.4396C102.899 36.4903 102.869 36.5157 102.813 36.5157ZM95.0609 36.5157H100.097C100.138 36.5157 100.158 36.4954 100.158 36.4548V34.6747C100.158 34.6239 100.138 34.5986 100.097 34.5986H96.8867V31.8751H100.097C100.138 31.8751 100.158 31.8548 100.158 31.8142L100.143 30.0493C100.143 30.0087 100.122 29.9884 100.082 29.9884H96.8867V27.554H100.082C100.122 27.554 100.143 27.5337 100.143 27.4932V25.7511C100.143 25.7003 100.122 25.675 100.082 25.675H95.0761C95.0355 25.675 95.0152 25.6953 95.0152 25.7358L95 36.4396C95 36.4903 95.0203 36.5157 95.0609 36.5157Z" fill="url(#paint2_linear_2011_27683)"/>
<defs>
<radialGradient id="paint0_radial_2011_27683" cx="0" cy="0" r="1" gradientUnits="userSpaceOnUse" gradientTransform="translate(27.9999 28) rotate(90) scale(28 27.9999)">
<stop stop-color="#6F2CA4"/>
<stop offset="1" stop-color="#863CFF" stop-opacity="0"/>
</radialGradient>
<linearGradient id="paint1_linear_2011_27683" x1="28.0009" y1="14.6221" x2="28.0009" y2="41.6887" gradientUnits="userSpaceOnUse">
<stop stop-color="#A93CFF"/>
<stop offset="1" stop-color="#863CFF"/>
</linearGradient>
<linearGradient id="paint2_linear_2011_27683" x1="95" y1="31.0839" x2="148.8" y2="31.0839" gradientUnits="userSpaceOnUse">
<stop stop-color="#A93CFF"/>
<stop offset="1" stop-color="#7A3CFF"/>
</linearGradient>
</defs>
</svg>
