<svg width="40" height="40" viewBox="0 0 40 40" fill="none" xmlns="http://www.w3.org/2000/svg">
<g clip-path="url(#clip0_2011_28095)">
<path fill-rule="evenodd" clip-rule="evenodd" d="M19.9991 2.32834C20.4082 2.32834 20.7398 1.9936 20.7398 1.58067C20.7398 1.16775 20.4082 0.833008 19.9991 0.833008C19.59 0.833008 19.2584 1.16775 19.2584 1.58067C19.2584 1.9936 19.59 2.32834 19.9991 2.32834ZM20.0009 7.93614C20.8191 7.93614 21.4824 7.09928 21.4824 6.06697C21.4824 5.03466 20.8191 4.19781 20.0009 4.19781C19.1827 4.19781 18.5194 5.03466 18.5194 6.06697C18.5194 7.09928 19.1827 7.93614 20.0009 7.93614ZM12.5504 8.13486C13.2919 8.48389 14.2434 8.00838 14.6756 7.07279C15.1079 6.13719 14.8571 5.0958 14.1156 4.74677C13.374 4.39774 12.4225 4.87325 11.9903 5.80885C11.5581 6.74444 11.8088 7.78584 12.5504 8.13486ZM7.80196 8.52322C7.14456 9.31403 6.10353 9.52476 5.47676 8.9939C4.84999 8.46305 4.87482 7.39163 5.53222 6.60083C6.18962 5.81002 7.23065 5.59929 7.85742 6.13014C8.48419 6.661 8.45936 7.73241 7.80196 8.52322ZM4.36456 15.723C4.99133 16.2538 6.03236 16.0431 6.68976 15.2523C7.34716 14.4615 7.37199 13.3901 6.74522 12.8592C6.11845 12.3283 5.07742 12.5391 4.42002 13.3299C3.76262 14.1207 3.73779 15.1921 4.36456 15.723ZM6.69086 26.7878C7.34826 27.5786 7.37309 28.65 6.74632 29.1809C6.11955 29.7117 5.07853 29.501 4.42112 28.7102C3.76372 27.9194 3.73889 26.848 4.36566 26.3171C4.99243 25.7863 6.03346 25.997 6.69086 26.7878ZM27.4478 8.13449C28.1894 7.78546 28.4401 6.74407 28.0079 5.80847C27.5757 4.87287 26.6241 4.39737 25.8826 4.74639C25.1411 5.09542 24.8903 6.13681 25.3225 7.07241C25.7548 8.00801 26.7063 8.48352 27.4478 8.13449ZM34.4665 6.60063C35.1239 7.39144 35.1487 8.46285 34.5219 8.99371C33.8952 9.52456 32.8541 9.31383 32.1967 8.52303C31.5393 7.73222 31.5145 6.6608 32.1413 6.12995C32.768 5.59909 33.8091 5.80983 34.4665 6.60063ZM35.6336 15.7228C36.2604 15.1919 36.2355 14.1205 35.5781 13.3297C34.9207 12.5389 33.8797 12.3282 33.2529 12.859C32.6262 13.3899 32.651 14.4613 33.3084 15.2521C33.9658 16.0429 35.0068 16.2536 35.6336 15.7228ZM35.5792 28.7104C34.9218 29.5012 33.8808 29.7119 33.254 29.1811C32.6272 28.6502 32.6521 27.5788 33.3095 26.788C33.9669 25.9972 35.0079 25.7865 35.6347 26.3173C36.2614 26.8482 36.2366 27.9196 35.5792 28.7104ZM15.3389 2.48322C14.905 2.9212 14.3188 3.03955 14.0295 2.74756C13.7402 2.45558 13.8575 1.86382 14.2914 1.42584C14.7253 0.987864 15.3115 0.869514 15.6008 1.1615C15.8901 1.45349 15.7728 2.04524 15.3389 2.48322ZM8.87737 3.91694C9.03078 4.18514 9.58595 4.1515 10.1174 3.8418C10.6488 3.5321 10.9553 3.06362 10.8019 2.79541C10.6485 2.52721 10.0933 2.56085 9.56184 2.87055C9.03041 3.18025 8.72396 3.64873 8.87737 3.91694ZM25.708 1.42587C26.1419 1.86385 26.2592 2.4556 25.9699 2.74759C25.6806 3.03957 25.0944 2.92122 24.6604 2.48324C24.2265 2.04526 24.1093 1.45351 24.3986 1.16153C24.6878 0.869539 25.2741 0.98789 25.708 1.42587ZM31.1714 4.104C31.3249 3.83579 31.0184 3.36731 30.487 3.05761C29.9555 2.74791 29.4004 2.71427 29.247 2.98247C29.0935 3.25068 29.4 3.71916 29.9314 4.02886C30.4629 4.33856 31.018 4.3722 31.1714 4.104ZM18.5171 35.4547C18.5171 34.4224 19.1803 33.5856 19.9985 33.5856C20.8167 33.5856 21.48 34.4224 21.48 35.4547C21.48 36.487 20.8167 37.3239 19.9985 37.3239C19.1803 37.3239 18.5171 36.487 18.5171 35.4547ZM27.448 33.3868C26.7065 33.0378 25.755 33.5133 25.3227 34.4489C24.8905 35.3845 25.1413 36.4259 25.8828 36.7749C26.6243 37.124 27.5759 36.6484 28.0081 35.7129C28.4403 34.7773 28.1896 33.7359 27.448 33.3868ZM32.197 32.9985C32.8544 32.2077 33.8954 31.9969 34.5222 32.5278C35.1489 33.0587 35.1241 34.1301 34.4667 34.9209C33.8093 35.7117 32.7683 35.9224 32.1415 35.3916C31.5147 34.8607 31.5396 33.7893 32.197 32.9985ZM12.55 33.3872C11.8085 33.7362 11.5577 34.7776 11.9899 35.7132C12.4222 36.6488 13.3737 37.1243 14.1152 36.7753C14.8568 36.4263 15.1075 35.3849 14.6753 34.4493C14.2431 33.5137 13.2915 33.0382 12.55 33.3872ZM5.5319 34.9211C4.8745 34.1303 4.84967 33.0588 5.47644 32.528C6.10321 31.9971 7.14424 32.2079 7.80164 32.9987C8.45904 33.7895 8.48387 34.8609 7.8571 35.3918C7.23033 35.9226 6.1893 35.7119 5.5319 34.9211ZM19.9998 39.3377C19.5907 39.3377 19.2591 39.6724 19.2591 40.0853C19.2591 40.4983 19.5907 40.833 19.9998 40.833C20.4089 40.833 20.7406 40.4983 20.7406 40.0853C20.7406 39.6724 20.4089 39.3377 19.9998 39.3377ZM24.66 39.0385C25.0939 38.6005 25.6802 38.4822 25.9694 38.7741C26.2587 39.0661 26.1414 39.6579 25.7075 40.0959C25.2736 40.5338 24.6874 40.6522 24.3981 40.3602C24.1088 40.0682 24.2261 39.4765 24.66 39.0385ZM31.1215 37.3568C30.9681 37.0886 30.413 37.1223 29.8815 37.432C29.3501 37.7417 29.0436 38.2101 29.1971 38.4783C29.3505 38.7466 29.9056 38.7129 30.4371 38.4032C30.9685 38.0935 31.275 37.625 31.1215 37.3568ZM14.2909 40.0958C13.857 39.6579 13.7398 39.0661 14.029 38.7741C14.3183 38.4821 14.9046 38.6005 15.3385 39.0385C15.7724 39.4764 15.8896 40.0682 15.6004 40.3602C15.3111 40.6522 14.7248 40.5338 14.2909 40.0958ZM8.82638 37.281C8.67297 37.5492 8.97942 38.0177 9.51086 38.3274C10.0423 38.6371 10.5975 38.6707 10.7509 38.4025C10.9043 38.1343 10.5978 37.6658 10.0664 37.3561C9.53497 37.0464 8.97979 37.0128 8.82638 37.281ZM14.8138 20.646C14.8138 21.8848 13.8189 22.889 12.5916 22.889C11.3644 22.889 10.3695 21.8848 10.3695 20.646C10.3695 19.4072 11.3644 18.403 12.5916 18.403C13.8189 18.403 14.8138 19.4072 14.8138 20.646ZM5.55569 22.5151C6.57841 22.5151 7.40749 21.7619 7.40749 20.8329C7.40749 19.9038 6.57841 19.1506 5.55569 19.1506C4.53296 19.1506 3.70388 19.9038 3.70388 20.8329C3.70388 21.7619 4.53296 22.5151 5.55569 22.5151ZM1.48149 20.8328C1.48149 21.349 1.14984 21.7674 0.740743 21.7674C0.331642 21.7674 0 21.349 0 20.8328C0 20.3166 0.331642 19.8982 0.740743 19.8982C1.14984 19.8982 1.48149 20.3166 1.48149 20.8328ZM0.395195 26.0734C0.554016 26.6717 1.00311 27.07 1.39827 26.9632C1.79343 26.8563 1.98502 26.2847 1.8262 25.6864C1.66738 25.0881 1.21829 24.6897 0.823127 24.7966C0.427967 24.9035 0.236375 25.4751 0.395195 26.0734ZM3.74775 31.5328C3.45847 31.8248 2.87222 31.7065 2.43831 31.2685C2.0044 30.8305 1.88715 30.2388 2.17642 29.9468C2.46569 29.6548 3.05195 29.7731 3.48586 30.2111C3.91977 30.6491 4.03702 31.2408 3.74775 31.5328ZM1.82763 15.9798C1.98646 15.3816 1.79487 14.8099 1.39971 14.703C1.00455 14.5962 0.555452 14.9945 0.396627 15.5928C0.237802 16.1911 0.429391 16.7627 0.824552 16.8696C1.21971 16.9765 1.66881 16.5781 1.82763 15.9798ZM3.74821 10.1337C4.03748 10.4257 3.92023 11.0174 3.48632 11.4554C3.05241 11.8934 2.46615 12.0118 2.17688 11.7198C1.88761 11.4278 2.00486 10.836 2.43877 10.398C2.87268 9.96007 3.45893 9.84172 3.74821 10.1337ZM27.4066 22.889C28.6339 22.889 29.6288 21.8848 29.6288 20.646C29.6288 19.4072 28.6339 18.403 27.4066 18.403C26.1794 18.403 25.1845 19.4072 25.1845 20.646C25.1845 21.8848 26.1794 22.889 27.4066 22.889ZM36.2942 20.8329C36.2942 21.7619 35.4651 22.5151 34.4424 22.5151C33.4197 22.5151 32.5906 21.7619 32.5906 20.8329C32.5906 19.9038 33.4197 19.1506 34.4424 19.1506C35.4651 19.1506 36.2942 19.9038 36.2942 20.8329ZM39.2591 21.7674C39.6682 21.7674 39.9998 21.349 39.9998 20.8328C39.9998 20.3166 39.6682 19.8982 39.2591 19.8982C38.85 19.8982 38.5183 20.3166 38.5183 20.8328C38.5183 21.349 38.85 21.7674 39.2591 21.7674ZM39.1764 24.7964C39.5715 24.9032 39.7631 25.4749 39.6043 26.0732C39.4455 26.6714 38.9964 27.0698 38.6012 26.9629C38.2061 26.8561 38.0145 26.2844 38.1733 25.6861C38.3321 25.0879 38.7812 24.6895 39.1764 24.7964ZM37.5591 31.2682C37.993 30.8303 38.1103 30.2385 37.821 29.9465C37.5317 29.6545 36.9455 29.7729 36.5116 30.2109C36.0777 30.6489 35.9604 31.2406 36.2497 31.5326C36.539 31.8246 37.1252 31.7062 37.5591 31.2682ZM39.175 16.8693C38.7798 16.9762 38.3307 16.5778 38.1719 15.9795C38.0131 15.3813 38.2047 14.8096 38.5998 14.7027C38.995 14.5959 39.4441 14.9942 39.6029 15.5925C39.7617 16.1908 39.5701 16.7624 39.175 16.8693ZM36.5133 11.4551C36.9472 11.8931 37.5335 12.0114 37.8227 11.7195C38.112 11.4275 37.9947 10.8357 37.5608 10.3977C37.1269 9.95976 36.5407 9.84141 36.2514 10.1334C35.9621 10.4254 36.0794 11.0171 36.5133 11.4551ZM14.7452 27.5907C15.0628 28.7872 14.4394 29.9955 13.3528 30.2894C12.2661 30.5833 11.1277 29.8515 10.8101 28.655C10.4924 27.4584 11.1158 26.2501 12.2025 25.9562C13.2892 25.6623 14.4276 26.3941 14.7452 27.5907ZM26.6452 30.2892C27.7319 30.5831 28.8703 29.8514 29.1879 28.6548C29.5056 27.4583 28.8821 26.25 27.7955 25.9561C26.7088 25.6622 25.5704 26.3939 25.2528 27.5905C24.9351 28.7871 25.5585 29.9953 26.6452 30.2892Z" fill="url(#paint0_radial_2011_28095)"/>
<path fill-rule="evenodd" clip-rule="evenodd" d="M13.0829 15.9248C13.4799 15.9248 13.8534 15.8237 14.1796 15.6456C14.8728 15.267 15.567 14.7629 16.3568 14.7629H16.6789C17.2694 14.7629 17.834 15.0887 18.2566 15.5012C18.6095 15.8456 18.8924 16.2678 18.9711 16.7546L18.9809 16.8156C19.0448 17.2107 19.0468 17.6135 18.9867 18.0093L18.9816 18.0426C18.8964 18.6045 18.523 19.0709 18.1764 19.5214C17.874 19.9145 17.694 20.4081 17.694 20.944C17.694 21.2087 17.7379 21.463 17.8188 21.7C18.1504 22.672 18.8468 23.5885 18.8468 24.6155C18.8468 25.6425 18.1504 26.559 17.8188 27.531C17.7379 27.768 17.694 28.0223 17.694 28.287C17.694 29.5703 18.7262 30.6107 19.9996 30.6107C21.2729 30.6107 22.3051 29.5703 22.3051 28.287C22.3051 28.0223 22.2612 27.768 22.1804 27.531C21.8487 26.559 21.1523 25.6425 21.1523 24.6155C21.1523 23.5885 21.8487 22.672 22.1804 21.7C22.2612 21.463 22.3051 21.2087 22.3051 20.944C22.3051 20.4081 22.1251 19.9145 21.8227 19.5214C21.4762 19.0709 21.1028 18.6045 21.0175 18.0426L21.0124 18.0093C20.9524 17.6135 20.9543 17.2107 21.0182 16.8156L21.028 16.7546C21.1067 16.2678 21.3897 15.8456 21.7426 15.5012C22.1651 15.0887 22.7297 14.7629 23.3202 14.7629H23.6423C24.4321 14.7629 25.1264 15.267 25.8196 15.6456C26.1457 15.8237 26.5192 15.9248 26.9162 15.9248C28.1896 15.9248 29.2218 14.8844 29.2218 13.6011C29.2218 12.3177 28.1896 11.2773 26.9162 11.2773C26.5192 11.2773 26.1457 11.3785 25.8195 11.5566C25.1264 11.9351 24.4321 12.4392 23.6423 12.4392C22.8526 12.4392 22.1158 11.971 21.4066 11.6235C20.9588 11.404 20.4439 11.2773 19.9996 11.2773C19.5553 11.2773 19.0403 11.404 18.5925 11.6235C17.8833 11.971 17.1466 12.4392 16.3568 12.4392C15.567 12.4392 14.8728 11.9351 14.1796 11.5566C13.8535 11.3785 13.4799 11.2773 13.0829 11.2773C11.8096 11.2773 10.7773 12.3177 10.7773 13.6011C10.7773 14.8844 11.8096 15.9248 13.0829 15.9248Z" fill="url(#paint1_linear_2011_28095)"/>
</g>
<defs>
<radialGradient id="paint0_radial_2011_28095" cx="0" cy="0" r="1" gradientUnits="userSpaceOnUse" gradientTransform="translate(20 20.8331) rotate(90) scale(20.0001 20)">
<stop stop-color="#6F2CA4"/>
<stop offset="1" stop-color="#863CFF" stop-opacity="0"/>
</radialGradient>
<linearGradient id="paint1_linear_2011_28095" x1="19.9996" y1="11.2773" x2="19.9996" y2="30.6107" gradientUnits="userSpaceOnUse">
<stop stop-color="#A93CFF"/>
<stop offset="1" stop-color="#863CFF"/>
</linearGradient>
<clipPath id="clip0_2011_28095">
<rect width="40" height="40" fill="white"/>
</clipPath>
</defs>
</svg>
