<svg width="29" height="29" viewBox="0 0 29 29" fill="none" xmlns="http://www.w3.org/2000/svg">
<path fill-rule="evenodd" clip-rule="evenodd" d="M5.89063 10.1436L5.89063 12.5006H8.24765V10.1438H10.6044V7.78701H12.82V7.9284H15.177L15.177 5.57138H15.1765V3.21476H12.8194V5.42999H10.6042V7.78678H8.24742L8.24742 10.1436H5.89063ZM12.8193 12.6431V15.0002H12.8196L12.8196 17.3566H15.1766V14.9996H15.1763V12.6431H12.8193ZM12.8194 12.6428L12.8194 10.2858H15.1765V12.6428H12.8194ZM15.3195 7.78598L15.3195 5.42896H17.6765L17.6765 7.78592L20.0335 7.78592V10.1429H22.3905V12.4999H20.0335V10.1429L17.6765 10.1429V7.78598H15.3195ZM12.8198 7.92869V10.2857H15.1768V7.92869H12.8198ZM12.8194 17.3569V19.7139H12.82V22.0705H15.177L15.177 19.7135H15.1765V17.3569H12.8194ZM12.8196 22.0707V24.4277H15.1766V22.0707H12.8196ZM12.8196 26.7852V24.4281H15.1766V26.7852H12.8196Z" fill="white"/>
</svg>
