<svg width="24" height="24" viewBox="0 0 24 24" fill="none" xmlns="http://www.w3.org/2000/svg">
<path fill-rule="evenodd" clip-rule="evenodd" d="M11.25 3C9.88382 3.00113 8.73117 3.00863 7.75 3.05823V6.61235H11.25V3ZM6.25004 3.18781C5.02731 3.35293 4.14854 3.66278 3.46451 4.24423C2.78047 4.82566 2.41594 5.57263 2.22168 6.61196H6.25004V3.18781ZM2.06874 7.8876C2 8.87005 2 10.0547 2 11.5002C2 12.9456 2 14.1303 2.06874 15.1127H21.9313C22 14.1303 22 12.9456 22 11.5002C22 10.0547 22 8.87005 21.9313 7.8876H2.06874ZM14 11.5004C14 11.0517 13.4704 10.7491 12.4112 10.144C11.3375 9.53064 10.8006 9.22394 10.4003 9.44913C10 9.67431 10 10.283 10 11.5004C10 12.7177 10 13.3264 10.4003 13.5516C10.8006 13.7768 11.3375 13.4701 12.4112 12.8567C13.4704 12.2516 14 11.949 14 11.5004ZM21.7784 6.61196C21.5841 5.57263 21.2196 4.82566 20.5355 4.24423C19.8515 3.66278 18.9727 3.35293 17.75 3.18781V6.61196H21.7784ZM16.25 3.05823C15.2688 3.00863 14.1162 3.00113 12.75 3V6.61235H16.25V3.05823ZM21.7784 16.3876H17.75V19.8117C18.9727 19.6466 19.8515 19.3367 20.5355 18.7553C21.2196 18.1739 21.5841 17.4269 21.7784 16.3876ZM16.25 19.9417V16.3876H12.75V19.9999C14.1162 19.9988 15.2688 19.9913 16.25 19.9417ZM11.25 19.9999V16.3876H7.75V19.9417C8.73117 19.9913 9.88382 19.9988 11.25 19.9999ZM6.25004 19.8117V16.3876H2.22168C2.41594 17.4269 2.78047 18.1739 3.46451 18.7553C4.14854 19.3367 5.02731 19.6466 6.25004 19.8117Z" fill="url(#paint0_linear_2011_28250)"/>
<defs>
<linearGradient id="paint0_linear_2011_28250" x1="2" y1="11.5" x2="22" y2="11.5" gradientUnits="userSpaceOnUse">
<stop stop-color="#A93CFF"/>
<stop offset="1" stop-color="#7A3CFF"/>
</linearGradient>
</defs>
</svg>
